<svg xmlns="http://www.w3.org/2000/svg" version="1.1" xmlns:xlink="http://www.w3.org/1999/xlink" xmlns:svgjs="http://svgjs.dev/svgjs" width="1000" height="522" viewBox="0 0 1000 522"><g transform="matrix(1,0,0,1,-0.606026454959931,-0.3312670671258502)"><svg viewBox="0 0 396 207" data-background-color="#ffffff" preserveAspectRatio="xMidYMid meet" height="522" width="1000" xmlns="http://www.w3.org/2000/svg" xmlns:xlink="http://www.w3.org/1999/xlink"><g id="tight-bounds" transform="matrix(1,0,0,1,0.23998647781650106,0.13136452661886722)"><svg viewBox="0 0 395.52 206.73727094676227" height="206.73727094676227" width="395.52"><g><svg viewBox="0 0 395.52 206.73727094676227" height="206.73727094676227" width="395.52"><g transform="matrix(1,0,0,1,0,150.60816367160814)"><svg viewBox="0 0 395.52 56.12910727515412" height="56.12910727515412" width="395.52"><g id="textblocktransform"><svg viewBox="0 0 395.52 56.12910727515412" height="56.12910727515412" width="395.52" id="textblock"><g><svg viewBox="0 0 395.52 34.68879538115275" height="34.68879538115275" width="395.52"><g transform="matrix(1,0,0,1,0,0)"><svg width="395.52" viewBox="0.4400000274181366 -35.349998474121094 408.7099914550781 35.849998474121094" height="34.68879538115275" data-palette-color="#096a2e"><path d="M12.65 0L6.6 0Q6.4 0 6.35-0.25L6.35-0.25 0.45-34.6Q0.4-34.8 0.6-34.8L0.6-34.8 6.2-34.8Q6.4-34.8 6.45-34.6L6.45-34.6 9.65-12 12.95-34.6Q13-34.8 13.25-34.8L13.25-34.8 17.75-34.8Q17.95-34.8 18-34.6L18-34.6 21.25-12 24.5-34.6Q24.55-34.8 24.75-34.8L24.75-34.8 30.3-34.8Q30.55-34.8 30.5-34.6L30.5-34.6 24.55-0.25Q24.5-0.15 24.4-0.08 24.3 0 24.3 0L24.3 0 18.25 0Q18.1 0 18-0.25L18-0.25 15.45-18.2 12.9-0.25Q12.85 0 12.65 0L12.65 0ZM39.3 0L33.65 0Q33.45 0 33.45-0.25L33.45-0.25 33.5-34.6Q33.5-34.8 33.75-34.8L33.75-34.8 39.3-34.8Q39.55-34.8 39.55-34.6L39.55-34.6 39.5-21 47-21 47-34.6Q47-34.8 47.2-34.8L47.2-34.8 52.75-34.8Q53-34.8 53-34.6L53-34.6 53.1-0.25Q53.1 0 52.85 0L52.85 0 47.25 0Q47 0 47-0.25L47-0.25 47-14.95 39.5-14.95 39.5-0.25Q39.5 0 39.3 0L39.3 0ZM66.45 0.5L66.45 0.5Q63.75 0.5 61.52-0.88 59.3-2.25 57.95-4.53 56.6-6.8 56.6-9.55L56.6-9.55 56.65-25.4Q56.65-28.15 57.97-30.4 59.3-32.65 61.55-34 63.8-35.35 66.45-35.35L66.45-35.35Q69.15-35.35 71.35-34 73.55-32.65 74.87-30.4 76.2-28.15 76.2-25.4L76.2-25.4 76.25-9.55Q76.25-6.8 74.92-4.53 73.6-2.25 71.37-0.88 69.15 0.5 66.45 0.5ZM66.45-5.55L66.45-5.55Q67.95-5.55 69.07-6.78 70.2-8 70.2-9.55L70.2-9.55 70.15-25.4Q70.15-27.05 69.1-28.2 68.05-29.35 66.45-29.35L66.45-29.35Q64.9-29.35 63.8-28.23 62.7-27.1 62.7-25.4L62.7-25.4 62.7-9.55Q62.7-7.9 63.8-6.73 64.9-5.55 66.45-5.55ZM103.79 0L87.64 0Q87.44 0 87.44-0.25L87.44-0.25 87.49-34.55Q87.49-34.8 87.74-34.8L87.74-34.8 93.29-34.8Q93.54-34.8 93.54-34.55L93.54-34.55 93.49-6.15 103.79-6.15Q104.04-6.15 104.04-5.9L104.04-5.9 104.04-0.25Q104.04 0 103.79 0L103.79 0ZM123.64 0L107.49 0Q107.29 0 107.29-0.25L107.29-0.25 107.34-34.6Q107.34-34.8 107.54-34.8L107.54-34.8 123.59-34.8Q123.79-34.8 123.79-34.55L123.79-34.55 123.79-28.95Q123.79-28.75 123.59-28.75L123.59-28.75 113.34-28.75 113.34-20.95 123.59-20.95Q123.79-20.95 123.79-20.75L123.79-20.75 123.84-15.1Q123.84-14.9 123.64-14.9L123.64-14.9 113.34-14.9 113.34-6.15 123.64-6.15Q123.84-6.15 123.84-5.9L123.84-5.9 123.84-0.2Q123.84 0 123.64 0L123.64 0ZM138.94 0L133.29 0Q133.09 0 133.09-0.25L133.09-0.25 133.09-28.75 126.59-28.75Q126.34-28.75 126.34-29L126.34-29 126.39-34.6Q126.39-34.8 126.59-34.8L126.59-34.8 145.59-34.8Q145.84-34.8 145.84-34.6L145.84-34.6 145.84-29Q145.84-28.75 145.64-28.75L145.64-28.75 139.09-28.75 139.14-0.25Q139.14 0 138.94 0L138.94 0ZM166.33 0L160.68 0Q160.48 0 160.48-0.25L160.48-0.25 160.48-28.75 153.98-28.75Q153.73-28.75 153.73-29L153.73-29 153.78-34.6Q153.78-34.8 153.98-34.8L153.98-34.8 172.98-34.8Q173.23-34.8 173.23-34.6L173.23-34.6 173.23-29Q173.23-28.75 173.03-28.75L173.03-28.75 166.48-28.75 166.53-0.25Q166.53 0 166.33 0L166.33 0ZM181.53 0L175.88 0Q175.68 0 175.68-0.25L175.68-0.25 175.73-34.6Q175.73-34.8 175.98-34.8L175.98-34.8 181.53-34.8Q181.78-34.8 181.78-34.6L181.78-34.6 181.73-21 189.23-21 189.23-34.6Q189.23-34.8 189.43-34.8L189.43-34.8 194.98-34.8Q195.23-34.8 195.23-34.6L195.23-34.6 195.33-0.25Q195.33 0 195.08 0L195.08 0 189.48 0Q189.23 0 189.23-0.25L189.23-0.25 189.23-14.95 181.73-14.95 181.73-0.25Q181.73 0 181.53 0L181.53 0ZM215.78 0L199.63 0Q199.43 0 199.43-0.25L199.43-0.25 199.48-34.6Q199.48-34.8 199.68-34.8L199.68-34.8 215.73-34.8Q215.93-34.8 215.93-34.55L215.93-34.55 215.93-28.95Q215.93-28.75 215.73-28.75L215.73-28.75 205.48-28.75 205.48-20.95 215.73-20.95Q215.93-20.95 215.93-20.75L215.93-20.75 215.98-15.1Q215.98-14.9 215.78-14.9L215.78-14.9 205.48-14.9 205.48-6.15 215.78-6.15Q215.98-6.15 215.98-5.9L215.98-5.9 215.98-0.2Q215.98 0 215.78 0L215.78 0ZM237.02-0.05L228.07 0Q227.82 0 227.82-0.25L227.82-0.25 227.92-34.6Q227.92-34.8 228.12-34.8L228.12-34.8 237.47-34.85Q240.22-34.9 242.5-33.55 244.77-32.2 246.12-29.93 247.47-27.65 247.47-24.9L247.47-24.9 247.47-10.55Q247.47-7.65 246.07-5.28 244.67-2.9 242.32-1.5 239.97-0.1 237.02-0.05L237.02-0.05ZM233.97-28.8L233.92-6.15 237.02-6.15Q238.87-6.15 240.15-7.45 241.42-8.75 241.42-10.55L241.42-10.55 241.42-24.95Q241.42-26.55 240.25-27.73 239.07-28.9 237.47-28.85L237.47-28.85 233.97-28.8ZM259.47 0.5L259.47 0.5Q256.77 0.5 254.54-0.88 252.32-2.25 250.97-4.53 249.62-6.8 249.62-9.55L249.62-9.55 249.67-25.4Q249.67-28.15 250.99-30.4 252.32-32.65 254.57-34 256.82-35.35 259.47-35.35L259.47-35.35Q262.17-35.35 264.37-34 266.57-32.65 267.89-30.4 269.22-28.15 269.22-25.4L269.22-25.4 269.27-9.55Q269.27-6.8 267.94-4.53 266.62-2.25 264.39-0.88 262.17 0.5 259.47 0.5ZM259.47-5.55L259.47-5.55Q260.97-5.55 262.09-6.78 263.22-8 263.22-9.55L263.22-9.55 263.17-25.4Q263.17-27.05 262.12-28.2 261.07-29.35 259.47-29.35L259.47-29.35Q257.92-29.35 256.82-28.23 255.72-27.1 255.72-25.4L255.72-25.4 255.72-9.55Q255.72-7.9 256.82-6.73 257.92-5.55 259.47-5.55ZM282.22 0.5L282.22 0.5Q279.52 0.5 277.32-0.85 275.12-2.2 273.79-4.48 272.47-6.75 272.47-9.55L272.47-9.55 272.47-25.4Q272.47-28.1 273.79-30.38 275.12-32.65 277.34-34 279.57-35.35 282.22-35.35L282.22-35.35Q284.97-35.35 287.19-34.02 289.42-32.7 290.72-30.45 292.02-28.2 292.02-25.4L292.02-25.4 292.02-23.1Q292.02-22.9 291.77-22.9L291.77-22.9 286.17-22.9Q285.97-22.9 285.97-23.1L285.97-23.1 285.97-25Q285.97-26.9 284.89-28.15 283.82-29.4 282.22-29.4L282.22-29.4Q280.77-29.4 279.64-28.2 278.52-27 278.52-25.4L278.52-25.4 278.52-9.55Q278.52-7.9 279.62-6.73 280.72-5.55 282.22-5.55L282.22-5.55Q283.82-5.55 284.89-6.7 285.97-7.85 285.97-9.55L285.97-9.55 285.97-12 282.47-12Q282.22-12 282.22-12.25L282.22-12.25 282.22-17.85Q282.22-18.1 282.47-18.1L282.47-18.1 291.82-18.1Q292.02-18.1 292.02-17.85L292.02-17.85 292.02-9.55Q292.02-6.75 290.69-4.48 289.37-2.2 287.17-0.85 284.97 0.5 282.22 0.5ZM304.06 0.5L304.06 0.5Q301.36 0.5 299.14-0.88 296.91-2.25 295.59-4.53 294.26-6.8 294.26-9.55L294.26-9.55 294.26-11.85Q294.26-12.1 294.51-12.1L294.51-12.1 300.11-12.1Q300.31-12.1 300.31-11.85L300.31-11.85 300.31-9.55Q300.31-7.9 301.41-6.73 302.51-5.55 304.06-5.55L304.06-5.55Q305.61-5.55 306.71-6.75 307.81-7.95 307.81-9.55L307.81-9.55Q307.81-11.4 305.41-12.75L305.41-12.75Q304.61-13.2 302.91-14.15 301.21-15.1 299.71-15.95L299.71-15.95Q296.96-17.55 295.64-19.98 294.31-22.4 294.31-25.45L294.31-25.45Q294.31-28.25 295.66-30.48 297.01-32.7 299.24-34 301.46-35.3 304.06-35.3L304.06-35.3Q306.71-35.3 308.94-33.98 311.16-32.65 312.49-30.43 313.81-28.2 313.81-25.45L313.81-25.45 313.81-21.35Q313.81-21.15 313.61-21.15L313.61-21.15 308.01-21.15Q307.81-21.15 307.81-21.35L307.81-21.35 307.76-25.45Q307.76-27.2 306.66-28.3 305.56-29.4 304.06-29.4L304.06-29.4Q302.51-29.4 301.41-28.23 300.31-27.05 300.31-25.45L300.31-25.45Q300.31-23.8 301.01-22.7 301.71-21.6 303.56-20.6L303.56-20.6Q303.81-20.45 304.54-20.08 305.26-19.7 306.11-19.23 306.96-18.75 307.64-18.4 308.31-18.05 308.46-17.95L308.46-17.95Q310.96-16.55 312.41-14.53 313.86-12.5 313.86-9.55L313.86-9.55Q313.86-6.7 312.54-4.42 311.21-2.15 308.99-0.83 306.76 0.5 304.06 0.5ZM334.01 0.5L334.01 0.5Q331.31 0.5 329.08-0.88 326.86-2.25 325.51-4.53 324.16-6.8 324.16-9.55L324.16-9.55 324.21-25.4Q324.21-28.15 325.53-30.4 326.86-32.65 329.11-34 331.36-35.35 334.01-35.35L334.01-35.35Q336.71-35.35 338.91-34 341.11-32.65 342.43-30.4 343.76-28.15 343.76-25.4L343.76-25.4 343.81-9.55Q343.81-6.8 342.48-4.53 341.16-2.25 338.93-0.88 336.71 0.5 334.01 0.5ZM334.01-5.55L334.01-5.55Q335.51-5.55 336.63-6.78 337.76-8 337.76-9.55L337.76-9.55 337.71-25.4Q337.71-27.05 336.66-28.2 335.61-29.35 334.01-29.35L334.01-29.35Q332.46-29.35 331.36-28.23 330.26-27.1 330.26-25.4L330.26-25.4 330.26-9.55Q330.26-7.9 331.36-6.73 332.46-5.55 334.01-5.55ZM357.11 0.5L357.11 0.5Q354.46 0.5 352.21-0.88 349.96-2.25 348.63-4.55 347.31-6.85 347.31-9.6L347.31-9.6 347.41-34.6Q347.41-34.8 347.61-34.8L347.61-34.8 353.21-34.8Q353.41-34.8 353.41-34.6L353.41-34.6 353.41-9.6Q353.41-7.9 354.48-6.73 355.56-5.55 357.11-5.55L357.11-5.55Q358.71-5.55 359.78-6.73 360.86-7.9 360.86-9.6L360.86-9.6 360.86-34.6Q360.86-34.8 361.06-34.8L361.06-34.8 366.66-34.8Q366.86-34.8 366.86-34.6L366.86-34.6 366.96-9.6Q366.96-6.8 365.63-4.5 364.31-2.2 362.08-0.85 359.86 0.5 357.11 0.5ZM381.55 0L375.9 0Q375.7 0 375.7-0.25L375.7-0.25 375.7-28.75 369.2-28.75Q368.95-28.75 368.95-29L368.95-29 369-34.6Q369-34.8 369.2-34.8L369.2-34.8 388.2-34.8Q388.45-34.8 388.45-34.6L388.45-34.6 388.45-29Q388.45-28.75 388.25-28.75L388.25-28.75 381.7-28.75 381.75-0.25Q381.75 0 381.55 0L381.55 0ZM402.15-9.2L396.6-9.2Q396.35-9.2 396.35-9.4L396.35-9.4 396.35-12.1Q396.35-14.1 397.28-16.13 398.2-18.15 399.8-19.75L399.8-19.75Q401.3-21.25 402-22.08 402.7-22.9 402.9-23.6 403.1-24.3 403.1-25.25L403.1-25.25Q403.1-27 402.05-28.18 401-29.35 399.4-29.35L399.4-29.35Q397.8-29.35 396.73-28.18 395.65-27 395.65-25.25L395.65-25.25 395.65-21.6Q395.65-21.4 395.45-21.4L395.45-21.4 389.8-21.4Q389.6-21.4 389.6-21.6L389.6-21.6 389.6-25.25Q389.6-28.05 390.93-30.35 392.25-32.65 394.48-34 396.7-35.35 399.4-35.35L399.4-35.35Q402.1-35.35 404.33-34 406.55-32.65 407.85-30.35 409.15-28.05 409.15-25.25L409.15-25.25Q409.15-23.6 408.8-22.33 408.45-21.05 407.5-19.68 406.55-18.3 404.7-16.25L404.7-16.25Q403.45-15 402.93-14 402.4-13 402.4-11.8L402.4-11.8 402.4-9.4Q402.4-9.2 402.15-9.2L402.15-9.2ZM402.15 0L396.6 0Q396.35 0 396.35-0.25L396.35-0.25 396.35-5.8Q396.35-6 396.6-6L396.6-6 402.15-6Q402.4-6 402.4-5.8L402.4-5.8 402.4-0.25Q402.4 0 402.15 0L402.15 0Z" opacity="1" transform="matrix(1,0,0,1,0,0)" fill="#096a2e" class="wordmark-text-0" data-fill-palette-color="primary" id="text-0"></path></svg></g></svg></g><g transform="matrix(1,0,0,1,0,42.87798743955377)"><svg viewBox="0 0 395.52 13.25111983560035" height="13.25111983560035" width="395.52"><g transform="matrix(1,0,0,1,0,0)"><svg width="395.52" viewBox="0.05000000447034836 -35.349998474121094 1070.0499267578125 35.849998474121094" height="13.25111983560035" data-palette-color="#8abe53"><path d="M12.65 0L7 0Q6.8 0 6.8-0.25L6.8-0.25 6.8-28.75 0.3-28.75Q0.05-28.75 0.05-29L0.05-29 0.1-34.6Q0.1-34.8 0.3-34.8L0.3-34.8 19.3-34.8Q19.55-34.8 19.55-34.6L19.55-34.6 19.55-29Q19.55-28.75 19.35-28.75L19.35-28.75 12.8-28.75 12.85-0.25Q12.85 0 12.65 0L12.65 0ZM43.71 0L38.06 0Q37.86 0 37.86-0.25L37.86-0.25 37.91-34.6Q37.91-34.8 38.16-34.8L38.16-34.8 43.71-34.8Q43.96-34.8 43.96-34.6L43.96-34.6 43.91-21 51.41-21 51.41-34.6Q51.41-34.8 51.61-34.8L51.61-34.8 57.16-34.8Q57.41-34.8 57.41-34.6L57.41-34.6 57.51-0.25Q57.51 0 57.26 0L57.26 0 51.66 0Q51.41 0 51.41-0.25L51.41-0.25 51.41-14.95 43.91-14.95 43.91-0.25Q43.91 0 43.71 0L43.71 0ZM93.82 0L77.67 0Q77.47 0 77.47-0.25L77.47-0.25 77.52-34.6Q77.52-34.8 77.72-34.8L77.72-34.8 93.77-34.8Q93.97-34.8 93.97-34.55L93.97-34.55 93.97-28.95Q93.97-28.75 93.77-28.75L93.77-28.75 83.52-28.75 83.52-20.95 93.77-20.95Q93.97-20.95 93.97-20.75L93.97-20.75 94.02-15.1Q94.02-14.9 93.82-14.9L93.82-14.9 83.52-14.9 83.52-6.15 93.82-6.15Q94.02-6.15 94.02-5.9L94.02-5.9 94.02-0.2Q94.02 0 93.82 0L93.82 0ZM143.44 0L137.84 0Q137.59 0 137.59-0.25L137.59-0.25 137.69-34.6Q137.69-34.8 137.89-34.8L137.89-34.8 153.89-34.8Q154.14-34.8 154.14-34.6L154.14-34.6 154.14-28.95Q154.14-28.75 153.94-28.75L153.94-28.75 143.69-28.75 143.69-21 153.94-21Q154.14-21 154.14-20.75L154.14-20.75 154.19-15.1Q154.19-14.9 153.94-14.9L153.94-14.9 143.69-14.9 143.69-0.25Q143.69 0 143.44 0L143.44 0ZM180.85 0L175.2 0Q175 0 175-0.25L175-0.25 175.1-34.6Q175.1-34.8 175.3-34.8L175.3-34.8 185.4-34.8Q188.1-34.8 190.37-33.48 192.65-32.15 194-29.93 195.35-27.7 195.35-24.9L195.35-24.9Q195.35-23.05 194.8-21.58 194.25-20.1 193.5-19.07 192.75-18.05 192.15-17.55L192.15-17.55Q194.85-14.55 194.85-10.5L194.85-10.5 194.9-0.25Q194.9 0 194.65 0L194.65 0 189 0Q188.8 0 188.8-0.15L188.8-0.15 188.8-10.5Q188.8-12.3 187.52-13.63 186.25-14.95 184.4-14.95L184.4-14.95 181.1-14.95 181.05-0.25Q181.05 0 180.85 0L180.85 0ZM181.1-28.8L181.1-20.95 185.4-20.95Q186.95-20.95 188.15-22.1 189.35-23.25 189.35-24.9L189.35-24.9Q189.35-26.5 188.17-27.65 187-28.8 185.4-28.8L185.4-28.8 181.1-28.8ZM220.86 0L215.21 0Q214.96 0 214.96-0.25L214.96-0.25 215.01-34.6Q215.01-34.8 215.21-34.8L215.21-34.8 220.81-34.8Q221.01-34.8 221.01-34.6L221.01-34.6 221.06-0.25Q221.06 0 220.86 0L220.86 0ZM257.67 0L241.52 0Q241.32 0 241.32-0.25L241.32-0.25 241.37-34.6Q241.37-34.8 241.57-34.8L241.57-34.8 257.62-34.8Q257.82-34.8 257.82-34.55L257.82-34.55 257.82-28.95Q257.82-28.75 257.62-28.75L257.62-28.75 247.37-28.75 247.37-20.95 257.62-20.95Q257.82-20.95 257.82-20.75L257.82-20.75 257.87-15.1Q257.87-14.9 257.67-14.9L257.67-14.9 247.37-14.9 247.37-6.15 257.67-6.15Q257.87-6.15 257.87-5.9L257.87-5.9 257.87-0.2Q257.87 0 257.67 0L257.67 0ZM283.63 0L278.63 0Q278.23 0 278.23-0.35L278.23-0.35 278.18-34.4Q278.18-34.8 278.58-34.8L278.58-34.8 283.08-34.8 291.53-15.1 291.28-34.4Q291.28-34.8 291.73-34.8L291.73-34.8 296.68-34.8Q296.98-34.8 296.98-34.4L296.98-34.4 297.03-0.3Q297.03 0 296.78 0L296.78 0 292.38 0 283.73-18.4 284.08-0.4Q284.08 0 283.63 0L283.63 0ZM326.43-0.05L317.48 0Q317.23 0 317.23-0.25L317.23-0.25 317.33-34.6Q317.33-34.8 317.53-34.8L317.53-34.8 326.88-34.85Q329.63-34.9 331.91-33.55 334.18-32.2 335.53-29.93 336.88-27.65 336.88-24.9L336.88-24.9 336.88-10.55Q336.88-7.65 335.48-5.28 334.08-2.9 331.73-1.5 329.38-0.1 326.43-0.05L326.43-0.05ZM323.38-28.8L323.33-6.15 326.43-6.15Q328.28-6.15 329.56-7.45 330.83-8.75 330.83-10.55L330.83-10.55 330.83-24.95Q330.83-26.55 329.66-27.73 328.48-28.9 326.88-28.85L326.88-28.85 323.38-28.8ZM373.04 0L356.89 0Q356.69 0 356.69-0.25L356.69-0.25 356.74-34.55Q356.74-34.8 356.99-34.8L356.99-34.8 362.54-34.8Q362.79-34.8 362.79-34.55L362.79-34.55 362.74-6.15 373.04-6.15Q373.29-6.15 373.29-5.9L373.29-5.9 373.29-0.25Q373.29 0 373.04 0L373.04 0ZM398.3 0L392.65 0Q392.4 0 392.4-0.25L392.4-0.25 392.45-34.6Q392.45-34.8 392.65-34.8L392.65-34.8 398.25-34.8Q398.45-34.8 398.45-34.6L398.45-34.6 398.5-0.25Q398.5 0 398.3 0L398.3 0ZM435.11 0L418.96 0Q418.76 0 418.76-0.25L418.76-0.25 418.81-34.6Q418.81-34.8 419.01-34.8L419.01-34.8 435.06-34.8Q435.26-34.8 435.26-34.55L435.26-34.55 435.26-28.95Q435.26-28.75 435.06-28.75L435.06-28.75 424.81-28.75 424.81-20.95 435.06-20.95Q435.26-20.95 435.26-20.75L435.26-20.75 435.31-15.1Q435.31-14.9 435.11-14.9L435.11-14.9 424.81-14.9 424.81-6.15 435.11-6.15Q435.31-6.15 435.31-5.9L435.31-5.9 435.31-0.2Q435.31 0 435.11 0L435.11 0ZM463.82 0.5L463.82 0.5Q461.12 0.5 458.9-0.88 456.67-2.25 455.35-4.53 454.02-6.8 454.02-9.55L454.02-9.55 454.02-11.85Q454.02-12.1 454.27-12.1L454.27-12.1 459.87-12.1Q460.07-12.1 460.07-11.85L460.07-11.85 460.07-9.55Q460.07-7.9 461.17-6.73 462.27-5.55 463.82-5.55L463.82-5.55Q465.37-5.55 466.47-6.75 467.57-7.95 467.57-9.55L467.57-9.55Q467.57-11.4 465.17-12.75L465.17-12.75Q464.37-13.2 462.67-14.15 460.97-15.1 459.47-15.95L459.47-15.95Q456.72-17.55 455.4-19.98 454.07-22.4 454.07-25.45L454.07-25.45Q454.07-28.25 455.42-30.48 456.77-32.7 459-34 461.22-35.3 463.82-35.3L463.82-35.3Q466.47-35.3 468.7-33.98 470.92-32.65 472.25-30.43 473.57-28.2 473.57-25.45L473.57-25.45 473.57-21.35Q473.57-21.15 473.37-21.15L473.37-21.15 467.77-21.15Q467.57-21.15 467.57-21.35L467.57-21.35 467.52-25.45Q467.52-27.2 466.42-28.3 465.32-29.4 463.82-29.4L463.82-29.4Q462.27-29.4 461.17-28.23 460.07-27.05 460.07-25.45L460.07-25.45Q460.07-23.8 460.77-22.7 461.47-21.6 463.32-20.6L463.32-20.6Q463.57-20.45 464.3-20.08 465.02-19.7 465.87-19.23 466.72-18.75 467.4-18.4 468.07-18.05 468.22-17.95L468.22-17.95Q470.72-16.55 472.17-14.53 473.62-12.5 473.62-9.55L473.62-9.55Q473.62-6.7 472.3-4.42 470.97-2.15 468.75-0.83 466.52 0.5 463.82 0.5ZM503.38 0L497.73 0Q497.53 0 497.53-0.25L497.53-0.25 497.53-28.75 491.03-28.75Q490.78-28.75 490.78-29L490.78-29 490.83-34.6Q490.83-34.8 491.03-34.8L491.03-34.8 510.03-34.8Q510.28-34.8 510.28-34.6L510.28-34.6 510.28-29Q510.28-28.75 510.08-28.75L510.08-28.75 503.53-28.75 503.58-0.25Q503.58 0 503.38 0L503.38 0ZM557.7 0L552.1 0Q551.85 0 551.85-0.25L551.85-0.25 551.95-34.6Q551.95-34.8 552.15-34.8L552.15-34.8 561.75-34.8Q566.35-34.8 569.03-32 571.7-29.2 571.7-24.4L571.7-24.4Q571.7-20.85 570.3-18.25 568.9-15.65 566.65-14.25 564.4-12.85 561.75-12.85L561.75-12.85 557.95-12.85 557.95-0.25Q557.95 0 557.7 0L557.7 0ZM557.95-28.8L557.95-18.9 561.75-18.9Q563.35-18.9 564.53-20.43 565.7-21.95 565.7-24.4L565.7-24.4Q565.7-26.35 564.65-27.6 563.6-28.85 561.75-28.85L561.75-28.85 557.95-28.8ZM586.36-0.25L586.36-0.25 592.56-34.6Q592.61-34.8 592.81-34.8L592.81-34.8 600.06-34.8Q600.26-34.8 600.31-34.6L600.31-34.6 606.26-0.25Q606.31 0 606.06 0L606.06 0 600.51 0Q600.31 0 600.26-0.25L600.26-0.25 599.71-3.9 592.91-3.9 592.36-0.25Q592.31 0 592.11 0L592.11 0 586.56 0Q586.36 0 586.36-0.25ZM596.16-23.3L593.91-9.25 598.71-9.25 596.66-23.3 596.36-25.15 596.16-23.3ZM631.12 0L625.47 0Q625.27 0 625.27-0.25L625.27-0.25 625.37-34.6Q625.37-34.8 625.57-34.8L625.57-34.8 635.67-34.8Q638.37-34.8 640.64-33.48 642.92-32.15 644.27-29.93 645.62-27.7 645.62-24.9L645.62-24.9Q645.62-23.05 645.07-21.58 644.52-20.1 643.77-19.07 643.02-18.05 642.42-17.55L642.42-17.55Q645.12-14.55 645.12-10.5L645.12-10.5 645.17-0.25Q645.17 0 644.92 0L644.92 0 639.27 0Q639.07 0 639.07-0.15L639.07-0.15 639.07-10.5Q639.07-12.3 637.79-13.63 636.52-14.95 634.67-14.95L634.67-14.95 631.37-14.95 631.32-0.25Q631.32 0 631.12 0L631.12 0ZM631.37-28.8L631.37-20.95 635.67-20.95Q637.22-20.95 638.42-22.1 639.62-23.25 639.62-24.9L639.62-24.9Q639.62-26.5 638.44-27.65 637.27-28.8 635.67-28.8L635.67-28.8 631.37-28.8ZM671.08 0L665.43 0Q665.23 0 665.23-0.25L665.23-0.25 665.33-34.55Q665.33-34.8 665.53-34.8L665.53-34.8 671.13-34.8Q671.33-34.8 671.33-34.55L671.33-34.55 671.33-22.7 679.18-34.6Q679.33-34.8 679.53-34.8L679.53-34.8 685.28-34.8Q685.48-34.8 685.38-34.6L685.38-34.6 676.73-20.8 686.43-0.2Q686.53 0 686.18 0L686.18 0 680.08 0Q679.83 0 679.78-0.2L679.78-0.2 673.03-14.9 671.28-12.15 671.28-0.25Q671.28 0 671.08 0L671.08 0ZM733.7 0L728.05 0Q727.8 0 727.8-0.25L727.8-0.25 727.85-34.6Q727.85-34.8 728.05-34.8L728.05-34.8 733.65-34.8Q733.85-34.8 733.85-34.6L733.85-34.6 733.9-0.25Q733.9 0 733.7 0L733.7 0ZM759.61 0L754.61 0Q754.21 0 754.21-0.35L754.21-0.35 754.16-34.4Q754.16-34.8 754.56-34.8L754.56-34.8 759.06-34.8 767.51-15.1 767.26-34.4Q767.26-34.8 767.71-34.8L767.71-34.8 772.66-34.8Q772.96-34.8 772.96-34.4L772.96-34.4 773.01-0.3Q773.01 0 772.76 0L772.76 0 768.36 0 759.71-18.4 760.06-0.4Q760.06 0 759.61 0L759.61 0ZM827.13 0L821.48 0Q821.28 0 821.28-0.25L821.28-0.25 821.28-28.75 814.78-28.75Q814.53-28.75 814.53-29L814.53-29 814.58-34.6Q814.58-34.8 814.78-34.8L814.78-34.8 833.78-34.8Q834.03-34.8 834.03-34.6L834.03-34.6 834.03-29Q834.03-28.75 833.83-28.75L833.83-28.75 827.28-28.75 827.33-0.25Q827.33 0 827.13 0L827.13 0ZM858.19 0L852.54 0Q852.34 0 852.34-0.25L852.34-0.25 852.39-34.6Q852.39-34.8 852.64-34.8L852.64-34.8 858.19-34.8Q858.44-34.8 858.44-34.6L858.44-34.6 858.39-21 865.89-21 865.89-34.6Q865.89-34.8 866.09-34.8L866.09-34.8 871.64-34.8Q871.89-34.8 871.89-34.6L871.89-34.6 871.99-0.25Q871.99 0 871.74 0L871.74 0 866.14 0Q865.89 0 865.89-0.25L865.89-0.25 865.89-14.95 858.39-14.95 858.39-0.25Q858.39 0 858.19 0L858.19 0ZM908.3 0L892.15 0Q891.95 0 891.95-0.25L891.95-0.25 892-34.6Q892-34.8 892.2-34.8L892.2-34.8 908.25-34.8Q908.45-34.8 908.45-34.55L908.45-34.55 908.45-28.95Q908.45-28.75 908.25-28.75L908.25-28.75 898-28.75 898-20.95 908.25-20.95Q908.45-20.95 908.45-20.75L908.45-20.75 908.5-15.1Q908.5-14.9 908.3-14.9L908.3-14.9 898-14.9 898-6.15 908.3-6.15Q908.5-6.15 908.5-5.9L908.5-5.9 908.5-0.2Q908.5 0 908.3 0L908.3 0ZM961.26 0.5L961.26 0.5Q958.51 0.5 956.29-0.88 954.06-2.25 952.76-4.55 951.46-6.85 951.46-9.7L951.46-9.7 951.51-25.3Q951.51-28.05 952.79-30.33 954.06-32.6 956.29-33.98 958.51-35.35 961.26-35.35L961.26-35.35Q964.01-35.35 966.21-34 968.41-32.65 969.71-30.38 971.01-28.1 971.01-25.3L971.01-25.3 971.01-23Q971.01-22.8 970.81-22.8L970.81-22.8 965.21-22.8Q965.01-22.8 965.01-23L965.01-23 965.01-25.3Q965.01-26.95 963.94-28.15 962.86-29.35 961.26-29.35L961.26-29.35Q959.46-29.35 958.51-28.13 957.56-26.9 957.56-25.3L957.56-25.3 957.56-9.7Q957.56-7.85 958.64-6.7 959.71-5.55 961.26-5.55L961.26-5.55Q962.86-5.55 963.94-6.83 965.01-8.1 965.01-9.7L965.01-9.7 965.01-12Q965.01-12.2 965.21-12.2L965.21-12.2 970.86-12.2Q971.06-12.2 971.06-12L971.06-12 971.06-9.7Q971.06-6.85 969.74-4.55 968.41-2.25 966.21-0.88 964.01 0.5 961.26 0.5ZM996.47 0L990.82 0Q990.57 0 990.57-0.25L990.57-0.25 990.62-34.6Q990.62-34.8 990.82-34.8L990.82-34.8 996.42-34.8Q996.62-34.8 996.62-34.6L996.62-34.6 996.67-0.25Q996.67 0 996.47 0L996.47 0ZM1027.58 0L1021.93 0Q1021.73 0 1021.73-0.25L1021.73-0.25 1021.73-28.75 1015.23-28.75Q1014.98-28.75 1014.98-29L1014.98-29 1015.03-34.6Q1015.03-34.8 1015.23-34.8L1015.23-34.8 1034.23-34.8Q1034.48-34.8 1034.48-34.6L1034.48-34.6 1034.48-29Q1034.48-28.75 1034.28-28.75L1034.28-28.75 1027.73-28.75 1027.78-0.25Q1027.78 0 1027.58 0L1027.58 0ZM1063.19 0L1057.44 0Q1057.29 0 1057.29-0.2L1057.29-0.2 1057.34-14.4 1050.64-34.6Q1050.59-34.8 1050.79-34.8L1050.79-34.8 1056.34-34.8Q1056.59-34.8 1056.64-34.6L1056.64-34.6 1060.34-21.15 1064.09-34.6Q1064.14-34.8 1064.34-34.8L1064.34-34.8 1069.94-34.8Q1070.14-34.8 1070.09-34.6L1070.09-34.6 1063.34-14.6 1063.39-0.2Q1063.39 0 1063.19 0L1063.19 0Z" opacity="1" transform="matrix(1,0,0,1,0,0)" fill="#8abe53" class="slogan-text-1" data-fill-palette-color="secondary" id="text-1"></path></svg></g></svg></g></svg></g></svg></g><g transform="matrix(1,0,0,1,130.64511022259694,0)"><svg viewBox="0 0 134.2297795548061 134.2297795548061" height="134.2297795548061" width="134.2297795548061"><g><svg></svg></g><g id="icon-0"><svg viewBox="0 0 134.2297795548061 134.2297795548061" height="134.2297795548061" width="134.2297795548061"><g><path d="M0 67.115c0-37.067 30.048-67.115 67.115-67.115 37.067 0 67.115 30.048 67.115 67.115 0 37.067-30.048 67.115-67.115 67.115-37.067 0-67.115-30.048-67.115-67.115zM67.115 131.102c35.339 0 63.987-28.648 63.987-63.987 0-35.339-28.648-63.987-63.987-63.987-35.339 0-63.987 28.648-63.987 63.987 0 35.339 28.648 63.987 63.987 63.987z" data-fill-palette-color="accent" fill="#8abe53" stroke="transparent"></path></g><g transform="matrix(1,0,0,1,31.820411311665566,30.511471603255103)"><svg viewBox="0 0 70.58895693147497 73.2068363482959" height="73.2068363482959" width="70.58895693147497"><g><svg version="1.1" xmlns="http://www.w3.org/2000/svg" xmlns:xlink="http://www.w3.org/1999/xlink" x="0" y="0" viewBox="1.0369997024536133 0 96.42399597167969 100" enable-background="new 1.036 0 96.425 100" xml:space="preserve" width="70.58895693147497" height="73.2068363482959" class="icon-s-0" data-fill-palette-color="accent" id="s-0"><g fill="#8abe53" data-fill-palette-color="accent"><path d="M61.132 64.483l-2.073 12.85-0.591 3.784h-1.124v0.002h-6.3v-0.002h-3.211l-6.027 18.881h3.211l4.889-15.316h8.579l4.891 15.316h3.012l-4.887-15.315h16.266L72.879 100h3.208l4.892-15.317h8.58L94.444 100h3.017l-5.793-18.147 0.707-4.52 2.067-12.849H92.2 63.376L61.132 64.483 61.132 64.483zM88.768 81.117h-0.35v0.002h-6.302l0.002-0.002h-3.214L78.9 81.119H61.277l0.591-3.786h27.49L88.768 81.117z" fill="#8abe53" data-fill-palette-color="accent"></path><path d="M41.006 73.291c3.328-1.187 6.307-3.304 8.718-6.1 1.905 0.895 4.026 1.409 6.271 1.409 0.736 0 1.456-0.076 2.163-0.187l0.693-4.3c0.18-1.118 1.145-1.939 2.277-1.939h2.246 4.748c1.652-2.39 2.666-5.248 2.666-8.371-0.004-4.554-2.061-8.623-5.297-11.338 3.235-2.714 5.293-6.782 5.293-11.339 0-8.171-6.622-14.795-14.795-14.795-0.301 0-0.592 0.026-0.891 0.045C52.163 6.832 44.396 0 35.241 0 23.565 0 14.103 11.095 14.103 24.787c0 0.036 0.004 0.072 0.004 0.107-7.358 0.856-13.07 7.104-13.07 14.69 0 6.163 3.765 11.437 9.12 13.663-0.909 1.921-1.433 4.058-1.433 6.324 0 8.169 6.624 14.791 14.796 14.791 1.829 0 3.571-0.343 5.189-0.95v21.55h12.284l0.014-0.041V73.291z" fill="#8abe53" data-fill-palette-color="accent"></path><g fill="#8abe53" data-fill-palette-color="accent"><path d="M82.627 14.448L82.627 14.448c-0.999-0.199-1.648-1.169-1.451-2.169 0.253-1.279-4.203-3.745-9.002-4.982-0.985-0.255-1.58-1.261-1.327-2.249 0.259-0.987 1.297-1.573 2.251-1.328 2.144 0.554 7.688 2.208 10.335 5.096 3.014-2.242 8.176-2.454 11.196-1.854 1 0.199 1.648 1.17 1.449 2.169-0.196 1.001-1.169 1.649-2.166 1.453-2.854-0.567-8.621-0.067-9.113 2.412C84.601 13.997 83.627 14.646 82.627 14.448z" fill="#8abe53" data-fill-palette-color="accent"></path></g></g></svg></g></svg></g></svg></g></svg></g><g></g></svg></g><defs></defs></svg><rect width="395.52" height="206.73727094676227" fill="none" stroke="none" visibility="hidden"></rect></g></svg></g></svg>